# xmcd
#
# Track frame offsets: 
#        150
#        18282
#        44255
#        75645
#        108512
#        137755
#
# Disc length: 2065 seconds
#
# Revision: 0
# Processed by: cddbd v1.5.2PL0 Copyright (c) Steve Scherf et al.
# Submitted via: ExactAudioCopy v0.99pb4
#
DISCID=43080f06
DTITLE=Viper - Twister (It's A New Day)
DYEAR=1900
DGENRE=House
TTITLE0=Twister (It's A New Day) Radio Mix
TTITLE1=Twister (It's A New Day) Fiocco Remix
TTITLE2=Twister (It's A New Day) Original Full Lenght Mix
TTITLE3=Twister (It's A New Day) Viper Remix
TTITLE4=Twister (It's A New Day) Club Mix By Porta 4
TTITLE5=Twister (It's A New Day) Club Edit By Porta 4
EXTD=
EXTT0=
EXTT1=
EXTT2=
EXTT3=
EXTT4=
EXTT5=
PLAYORDER=
